<?xml version="1.0" encoding="UTF-8"?>
<svg id="Layer_2" data-name="Layer 2" xmlns="http://www.w3.org/2000/svg" xmlns:xlink="http://www.w3.org/1999/xlink" viewBox="0 0 334.38 70.82">
  <defs>
    <style>
      .cls-1 {
        fill: url(#linear-gradient);
      }

      .cls-1, .cls-2, .cls-3 {
        stroke-width: 0px;
      }

      .cls-2 {
        fill: url(#linear-gradient-2);
      }

      .cls-3 {
        fill: #fff;
      }
    </style>
    <linearGradient id="linear-gradient" x1="77.3" y1="17.09" x2="48.27" y2="46.13" gradientUnits="userSpaceOnUse">
      <stop offset="0" stop-color="#f1d6d2"/>
      <stop offset=".59" stop-color="#ff8a78"/>
      <stop offset=".87" stop-color="#de6350"/>
      <stop offset="1" stop-color="#b83825"/>
    </linearGradient>
    <linearGradient id="linear-gradient-2" x1="77.77" y1="-18.89" x2="7.32" y2="51.56" xlink:href="#linear-gradient"/>
  </defs>
  <g id="Layer_1-2" data-name="Layer 1">
    <g>
      <g>
        <path class="cls-1" d="M59.16,58.23l8.36-4.34c.43-.23.71-.67.71-1.16V.66c0-.58-.71-.88-1.12-.46l-32.34,32.34,16.4,17.71"/>
        <path class="cls-2" d="M59.16,58.23L1.12.19C.71-.22,0,.07,0,.66v52.07c0,.49.27.94.71,1.16l31.89,16.56c.95.49,2.08.49,3.02,0"/>
      </g>
      <g>
        <path class="cls-3" d="M122,58.86c-13.21,0-18.05-6.9-18.05-18.15V13.07h9.31v28.33c0,6.75,3.53,9.71,8.75,9.71s8.87-2.9,8.87-9.71V13.07h9.21v27.96c0,10.96-4.93,17.83-18.08,17.83Z"/>
        <path class="cls-3" d="M146.99,49.17V11.82h8.96v36.23c0,2.37.84,3.94,3.62,4.25l1.53.09v5.62c-1.22.44-2.56.78-3.78.78-9.56,0-10.34-4.97-10.34-9.62Z"/>
        <path class="cls-3" d="M174.93,32.27l.03,17.12c0,2.37,1,2.78,2.91,2.78h4.34v5.62c-.84.38-2.5.78-5.65.78-8.53,0-10.74-3.53-10.74-8.71v-17.58h-5.25v-6.34h5.53l1.44-9.75h7.4v9.71h7.18v6.37h-7.18Z"/>
        <path class="cls-3" d="M186.29,25.93h8.78v7.65c1.56-4.53,5.28-8.28,11.31-8.28l.06,8.65c-8.75-.69-11,2.72-11,6.59v17.68h-9.15V25.93Z"/>
        <path class="cls-3" d="M207.88,48.99c0-7.06,5.09-10.81,16.52-10.93l4.03-.06v-1.94c0-3.03-2-4.62-5.37-4.59-2.62.03-5.4,1.19-6.31,4.09h-7.62c.38-6.68,6.31-10.25,14.34-10.25,9.9,0,13.71,4.09,13.71,10.21v22.71h-7.62l-.75-5.47c-2.22,4.69-5.53,6.09-10,6.09-6.21,0-10.93-3.56-10.93-9.87ZM228.43,47.46v-4.78l-3.28.06c-4.56.06-8.62,1.41-8.62,5.34,0,3,2.34,4.78,5.31,4.78,3.31,0,6.56-2.62,6.59-5.4Z"/>
        <path class="cls-3" d="M257.33,58.23h-6.59l-12.12-32.3h8.25l7.06,20.58h.25l6.96-20.58h8.31l-12.12,32.3Z"/>
        <path class="cls-3" d="M269.17,42.3c0-10.12,6.25-16.99,15.68-16.99s15.55,7.12,15.55,16.96-5.93,16.59-15.62,16.59-15.62-6.84-15.62-16.55ZM291.47,41.96c0-5.12-1.66-9.93-6.62-9.93s-6.78,4.84-6.78,9.93,1.72,10.12,6.78,10.12,6.62-5.06,6.62-10.12Z"/>
        <path class="cls-3" d="M324.82,58.23l-7.71-10.53-7.71,10.53h-9.56l12.4-16.84-11.34-15.46h9.56l6.72,9.06,6.68-9.06h9.53l-11.43,15.46,12.43,16.84h-9.56Z"/>
      </g>
    </g>
  </g>
</svg>