<?xml version="1.0" encoding="UTF-8"?>
<svg id="Layer_2" data-name="Layer 2" xmlns="http://www.w3.org/2000/svg" viewBox="0 0 159.34 218.18">
  <defs>
    <style>
      .cls-1 {
        fill: #fff;
        stroke-width: 0px;
      }
    </style>
  </defs>
  <g id="Layer_1-2" data-name="Layer 1">
    <g>
      <g>
        <path class="cls-1" d="M13.04,218.18c-8.81,0-12.04-4.6-12.04-12.1v-18.43h6.21v18.89c0,4.5,2.35,6.48,5.83,6.48s5.92-1.94,5.92-6.48v-18.89h6.14v18.64c0,7.31-3.29,11.89-12.06,11.89Z"/>
        <path class="cls-1" d="M30.36,211.73v-24.91h5.98v24.16c0,1.58.56,2.62,2.42,2.83l1.02.06v3.75c-.81.29-1.71.52-2.52.52-6.37,0-6.89-3.31-6.89-6.42Z"/>
        <path class="cls-1" d="M49.68,200.46l.02,11.41c0,1.58.67,1.85,1.94,1.85h2.89v3.75c-.56.25-1.67.52-3.77.52-5.69,0-7.17-2.35-7.17-5.81v-11.73h-3.5v-4.23h3.69l.96-6.5h4.94v6.48h4.79v4.25h-4.79Z"/>
        <path class="cls-1" d="M57.91,196.23h5.85v5.1c1.04-3.02,3.52-5.52,7.54-5.52l.04,5.77c-5.83-.46-7.33,1.81-7.33,4.4v11.79h-6.1v-21.54Z"/>
        <path class="cls-1" d="M72.96,211.6c0-4.71,3.39-7.21,11.02-7.29l2.69-.04v-1.29c0-2.02-1.33-3.08-3.58-3.06-1.75.02-3.6.79-4.21,2.73h-5.08c.25-4.46,4.21-6.83,9.56-6.83,6.6,0,9.14,2.73,9.14,6.81v15.14h-5.08l-.5-3.65c-1.48,3.12-3.69,4.06-6.67,4.06-4.14,0-7.29-2.37-7.29-6.58ZM86.67,210.58v-3.19l-2.19.04c-3.04.04-5.75.94-5.75,3.56,0,2,1.56,3.19,3.54,3.19,2.21,0,4.37-1.75,4.4-3.6Z"/>
        <path class="cls-1" d="M106.61,217.77h-4.39l-8.08-21.54h5.5l4.71,13.73h.17l4.64-13.73h5.54l-8.08,21.54Z"/>
        <path class="cls-1" d="M115.17,207.15c0-6.75,4.17-11.33,10.46-11.33s10.37,4.75,10.37,11.31-3.96,11.06-10.41,11.06-10.41-4.56-10.41-11.04ZM130.05,206.92c0-3.42-1.1-6.62-4.42-6.62s-4.52,3.23-4.52,6.62,1.15,6.75,4.52,6.75,4.42-3.37,4.42-6.75Z"/>
        <path class="cls-1" d="M152.96,217.77l-5.14-7.02-5.14,7.02h-6.37l8.27-11.23-7.56-10.31h6.37l4.48,6.04,4.46-6.04h6.35l-7.62,10.31,8.29,11.23h-6.37Z"/>
      </g>
      <path class="cls-1" d="M119.89,117.75L2.59.45C1.63-.51,0,.17,0,1.52v120.45c0,1.13.63,2.17,1.64,2.69l73.78,38.31c2.19,1.14,4.8,1.14,6.99,0l73.78-38.31c1.01-.52,1.64-1.56,1.64-2.69V1.52c0-1.35-1.63-2.03-2.59-1.07l-71.67,71.67,37.33,44.71c.56.67-.39,1.54-1.01.92Z"/>
    </g>
  </g>
</svg>